<?xml version="1.0" encoding="utf-8"?>
<!-- Generator: Adobe Illustrator 27.2.0, SVG Export Plug-In . SVG Version: 6.00 Build 0)  -->
<svg version="1.1" id="Layer_1" xmlns="http://www.w3.org/2000/svg" xmlns:xlink="http://www.w3.org/1999/xlink" x="0px" y="0px"
	 viewBox="0 0 51.83 51.91" style="enable-background:new 0 0 51.83 51.91;" xml:space="preserve">
<style type="text/css">
	.st0{fill:#6E523B;}
	.st1{fill:#FFEED9;}
</style>
<rect y="0.08" class="st0" width="51.83" height="51.83"/>
<path class="st1" d="M38.81,10.38c-0.05-0.41-0.45-0.72-0.82-0.72h-0.72c-0.23,0-0.64,0.18-0.77,0.45L25.96,29.72h-0.09L15.34,10.11
	c-0.14-0.27-0.55-0.45-0.77-0.45h-0.73c-0.37,0-0.77,0.32-0.82,0.72l-5.12,30.5c-0.09,0.59,0.32,1,0.86,1h5.36
	c0.45,0,0.82-0.37,0.86-0.72l2-14.03h0.09l7.67,14.71c0.14,0.27,0.5,0.5,0.77,0.5h0.82c0.23,0,0.64-0.23,0.77-0.5l7.63-14.71h0.09
	l2.04,14.03c0.04,0.37,0.45,0.72,0.86,0.72h5.36c0.54,0,0.95-0.41,0.86-1L38.81,10.38z"/>
</svg>
