<?xml version="1.0" encoding="utf-8"?>
<!-- Generator: Adobe Illustrator 28.2.0, SVG Export Plug-In . SVG Version: 6.00 Build 0)  -->
<svg version="1.1" id="Layer_1" xmlns="http://www.w3.org/2000/svg" xmlns:xlink="http://www.w3.org/1999/xlink" x="0px" y="0px"
	 viewBox="0 0 256 256" style="enable-background:new 0 0 256 256;" xml:space="preserve">
<style type="text/css">
	.st0{fill:#6E523B;}
</style>
<g id="Layer_1-2">
	<path class="st0" d="M128.5,0C57.9-0.3,0.3,56.7,0,127.4c-0.2,55.5,35.3,104.8,88,122.1c3.4,1.1,7.1-0.7,8.2-4.1
		c0.2-0.7,0.3-1.5,0.3-2.2v-23.5c-35.2,7.5-42.6-14.9-42.6-14.9c-2.2-7.9-7.1-14.7-13.9-19.2c-11.7-7.5,1.1-7.5,1.1-7.5
		c8,1.1,15.1,5.8,19.2,12.8c7.5,13.1,24,17.8,37.3,10.7c0.3-6.6,3.4-12.8,8.5-17.1c-29.9-3.2-59.7-13.9-59.7-62.9
		c0-12.6,4.5-24.7,12.8-34.1c-2.9-11.3-2.2-23.3,2.1-34.1c0,0,10.7-3.2,35.2,12.8c10.4-3,21.2-4.4,32-4.3c10.8-0.2,21.6,1.3,32,4.3
		c24.5-16,35.2-12.8,35.2-12.8c4.9,10.8,5.2,23.1,1.1,34.1c8.7,9.2,13.3,21.5,12.8,34.1c0,49-29.9,59.7-58.6,62.9
		c5.9,6.3,9,14.8,8.5,23.5v35.2c-0.1,3.6,2.7,6.6,6.3,6.7c0.8,0,1.5-0.1,2.2-0.3c67.1-22.1,103.7-94.4,81.6-161.5
		C232.4,35.7,183.6,0.2,128.5,0z"/>
</g>
</svg>
