<?xml version="1.0" encoding="utf-8"?>
<!-- Generator: Adobe Illustrator 27.3.1, SVG Export Plug-In . SVG Version: 6.00 Build 0)  -->
<svg version="1.1" id="Layer_1" xmlns="http://www.w3.org/2000/svg" xmlns:xlink="http://www.w3.org/1999/xlink" x="0px" y="0px"
	 viewBox="0 0 488.6 51.9" style="enable-background:new 0 0 488.6 51.9;" xml:space="preserve">
<style type="text/css">
	.st0{fill:#6E523B;}
</style>
<path class="st0" d="M268.1,30.8L268.1,30.8l0,18.9c0,0.7-0.6,1.4-1.4,1.4h-8.6c-0.7,0-1.4-0.7-1.4-1.4V2.1c0-0.7,0.6-1.4,1.4-1.4
	h8.6c0.8,0,1.4,0.6,1.4,1.4v18.1h0V30.8z M298.6,0.7H290c-0.8,0-1.4,0.6-1.4,1.4v18.1h-17v10.6h17v18.9c0,0.7,0.6,1.4,1.4,1.4h8.6
	c0.7,0,1.4-0.7,1.4-1.4V2.1C300,1.4,299.3,0.7,298.6,0.7z M0,49.5c-0.1,0.9,0.5,1.6,1.4,1.6h8.5c0.7,0,1.3-0.6,1.4-1.2l3.2-22.2h0.1
	l12.2,23.3c0.2,0.4,0.8,0.8,1.2,0.8h1.3c0.4,0,1-0.4,1.2-0.8l12.1-23.3h0.1L46,50c0.1,0.6,0.7,1.2,1.4,1.2h8.5
	c0.9,0,1.5-0.7,1.4-1.6L49.1,1.1C49,0.5,48.3,0,47.8,0h-1.2c-0.4,0-1,0.3-1.2,0.7L28.7,31.8h-0.1L11.8,0.7C11.6,0.3,11,0,10.6,0H9.4
	C8.9,0,8.2,0.5,8.1,1.1L0,49.5z M143,26.6v12.6c-2.2,0.9-4.3,1.2-6.4,1.2c-7.9,0-14.3-6.5-14.3-14.3c0-7.9,6.3-14.5,14.2-14.5
	c3.5,0,6.7,0.9,9.4,3.5c0.6,0.4,1.4,0.4,1.9-0.1l5.7-6.1c0.6-0.6,0.5-1.4-0.1-1.9c-4.9-4.2-11.5-6.8-17.6-6.8
	C121.6,0.1,110,11.6,110,26s11.5,25.8,25.8,25.8c10.4,0,17.9-4.7,17.9-4.7c0.3-0.2,0.6-0.8,0.6-1.2l-0.1-19.4c0-0.7-0.6-1.4-1.3-1.4
	h-8.6C143.6,25.2,143,25.8,143,26.6 M164.2,49.8c0,0.7,0.6,1.4,1.3,1.4H183c13.9,0,25.3-11.3,25.3-25.3c0-13.8-11.4-25.1-25.3-25.1
	h-17.6c-0.7,0-1.3,0.6-1.3,1.4L164.2,49.8L164.2,49.8z M175.4,40.5V11.3h6.9c8.1,0,14,6.4,14,14.5c0,8.2-5.9,14.6-14,14.6H175.4z
	 M217.1,49.8c0,0.7,0.6,1.4,1.4,1.4h8.6c0.7,0,1.4-0.7,1.4-1.4V2.1c0-0.7-0.6-1.4-1.4-1.4h-8.6c-0.7,0-1.4,0.6-1.4,1.4V49.8z
	 M355.5,49.8c0,0.7,0.6,1.4,1.4,1.4h31.2c0.8,0,1.4-0.7,1.4-1.4v-7.8c0-0.7-0.6-1.4-1.4-1.4h-15.7v-0.1L390.9,3V2.1
	c0-0.7-0.6-1.4-1.4-1.4h-30.6c-0.7,0-1.4,0.6-1.4,1.4v7.8c0,0.7,0.6,1.4,1.4,1.4h15.7v0.1l-19.1,37L355.5,49.8L355.5,49.8z
	 M431.6,51.1h8c1.1,0,1.7-0.9,1.2-1.9L418.3,0.8C418,0.4,417.5,0,417,0h-0.7c-0.5,0-1,0.4-1.2,0.8l-22.5,48.5
	c-0.4,0.9,0.1,1.9,1.2,1.9h7.9c1.4,0,2.2-0.9,2.6-1.7L416.6,22h0.1l12.4,27.4C429.7,50.7,430.3,51.1,431.6,51.1z M479.2,51.1h8
	c1.1,0,1.7-0.9,1.2-1.9L465.9,0.8c-0.2-0.4-0.7-0.8-1.2-0.8H464c-0.5,0-1,0.4-1.2,0.8l-22.5,48.5c-0.4,0.9,0.1,1.9,1.2,1.9h7.9
	c1.4,0,2.2-0.9,2.6-1.7L464.3,22h0.1l12.4,27.4C477.4,50.7,478,51.1,479.2,51.1z M344.9,51.1h8c1.1,0,1.7-0.9,1.2-1.9L331.6,0.8
	c-0.2-0.4-0.7-0.8-1.2-0.8h-0.7c-0.5,0-1,0.4-1.2,0.8l-22.5,48.5c-0.4,0.9,0.1,1.9,1.2,1.9h7.9c1.4,0,2.2-0.9,2.6-1.7L329.9,22h0.1
	l12.4,27.4C343,50.7,343.6,51.1,344.9,51.1z M98.9,51.1h8c1.1,0,1.7-0.9,1.2-1.9L85.6,0.8C85.4,0.4,84.9,0,84.4,0h-0.7
	c-0.5,0-1,0.4-1.2,0.8L59.9,49.2c-0.4,0.9,0.1,1.9,1.2,1.9h7.9c1.4,0,2.2-0.9,2.6-1.7L84,22H84l12.4,27.4
	C97.1,50.7,97.7,51.1,98.9,51.1z"/>
</svg>
