<?xml version="1.0" encoding="utf-8"?>
<!-- Generator: Adobe Illustrator 27.2.0, SVG Export Plug-In . SVG Version: 6.00 Build 0)  -->
<svg version="1.1" id="Layer_1" xmlns="http://www.w3.org/2000/svg" xmlns:xlink="http://www.w3.org/1999/xlink" x="0px" y="0px"
	 viewBox="0 0 488.61 51.91" style="enable-background:new 0 0 488.61 51.91;" xml:space="preserve">
<path d="M268.08,30.82L268.08,30.82l-0.01,18.94c0,0.72-0.58,1.37-1.37,1.37h-8.57c-0.72,0-1.37-0.65-1.37-1.37V2.09
	c0-0.72,0.65-1.37,1.37-1.37h8.57c0.79,0,1.37,0.65,1.37,1.37v18.15h0.01V30.82z M298.6,0.72h-8.57c-0.79,0-1.37,0.65-1.37,1.37
	v18.15h-17.02v10.58h17.02v18.94c0,0.72,0.58,1.37,1.37,1.37h8.57c0.72,0,1.37-0.65,1.37-1.37V2.09
	C299.97,1.37,299.32,0.72,298.6,0.72z M0.02,49.54c-0.14,0.94,0.5,1.58,1.37,1.58h8.5c0.72,0,1.3-0.58,1.37-1.15l3.17-22.25h0.14
	l12.17,23.33c0.22,0.43,0.79,0.79,1.22,0.79h1.3c0.36,0,1.01-0.36,1.22-0.79l12.1-23.33h0.14l3.24,22.25
	c0.07,0.58,0.72,1.15,1.37,1.15h8.5c0.86,0,1.51-0.65,1.37-1.58L49.06,1.15C48.98,0.5,48.34,0,47.76,0h-1.15
	c-0.36,0-1.01,0.29-1.22,0.72L28.68,31.83h-0.14L11.83,0.72C11.61,0.29,10.96,0,10.61,0H9.45c-0.58,0-1.22,0.5-1.3,1.15L0.02,49.54z
	 M143.02,26.57l0,12.6c-2.16,0.86-4.32,1.15-6.41,1.15c-7.85,0-14.26-6.48-14.26-14.33c0-7.92,6.34-14.54,14.19-14.54
	c3.53,0,6.7,0.94,9.43,3.46c0.58,0.43,1.37,0.43,1.94-0.07l5.69-6.05c0.58-0.58,0.5-1.44-0.14-1.94c-4.9-4.25-11.52-6.77-17.57-6.77
	c-14.33,0-25.85,11.52-25.85,25.92c0,14.4,11.52,25.78,25.85,25.78c10.44,0,17.86-4.68,17.86-4.68c0.29-0.22,0.58-0.79,0.58-1.15
	l-0.07-19.37c0-0.72-0.58-1.37-1.3-1.37l-8.57,0C143.59,25.21,143.02,25.78,143.02,26.57 M164.18,49.76c0,0.72,0.58,1.37,1.3,1.37
	h17.57c13.9,0,25.27-11.31,25.27-25.27c0-13.83-11.38-25.13-25.27-25.13h-17.57c-0.72,0-1.3,0.65-1.3,1.37V49.76z M175.41,40.47
	V11.31h6.91c8.14,0,14.04,6.41,14.04,14.54c0,8.21-5.9,14.62-14.04,14.62H175.41z M217.1,49.76c0,0.72,0.65,1.37,1.37,1.37h8.64
	c0.72,0,1.37-0.65,1.37-1.37V2.09c0-0.72-0.65-1.37-1.37-1.37h-8.64c-0.72,0-1.37,0.65-1.37,1.37V49.76z M355.48,49.76
	c0,0.72,0.65,1.37,1.37,1.37h31.25c0.79,0,1.37-0.65,1.37-1.37v-7.85c0-0.72-0.58-1.37-1.37-1.37h-15.7V40.4l18.51-37.37V2.09
	c0-0.72-0.65-1.37-1.37-1.37h-30.6c-0.72,0-1.37,0.65-1.37,1.37v7.85c0,0.72,0.65,1.37,1.37,1.37h15.7v0.14l-19.15,37.01V49.76z
	 M431.59,51.12h7.99c1.08,0,1.66-0.94,1.22-1.87L418.26,0.79C418.05,0.36,417.54,0,417.04,0h-0.72c-0.5,0-1.01,0.36-1.22,0.79
	l-22.54,48.46c-0.43,0.94,0.14,1.87,1.22,1.87h7.92c1.44,0,2.23-0.86,2.59-1.73l12.31-27.43h0.07l12.38,27.36
	C429.71,50.69,430.29,51.12,431.59,51.12z M479.25,51.12h7.99c1.08,0,1.66-0.94,1.22-1.87L465.93,0.79C465.71,0.36,465.21,0,464.7,0
	h-0.72c-0.5,0-1.01,0.36-1.22,0.79l-22.54,48.46c-0.43,0.94,0.14,1.87,1.22,1.87h7.92c1.44,0,2.23-0.86,2.59-1.73l12.31-27.43h0.07
	l12.38,27.36C477.38,50.69,477.95,51.12,479.25,51.12z M344.9,51.12h7.99c1.08,0,1.66-0.94,1.22-1.87L331.58,0.79
	C331.36,0.36,330.86,0,330.35,0h-0.72c-0.5,0-1.01,0.36-1.22,0.79l-22.54,48.46c-0.43,0.94,0.14,1.87,1.22,1.87h7.92
	c1.44,0,2.23-0.86,2.59-1.73l12.31-27.43h0.07l12.38,27.36C343.03,50.69,343.6,51.12,344.9,51.12z M98.95,51.12h7.99
	c1.08,0,1.66-0.94,1.22-1.87L85.63,0.79C85.41,0.36,84.91,0,84.41,0h-0.72c-0.5,0-1.01,0.36-1.22,0.79L59.92,49.25
	c-0.43,0.94,0.14,1.87,1.22,1.87h7.92c1.44,0,2.23-0.86,2.59-1.73l12.31-27.43h0.07l12.38,27.36
	C97.08,50.69,97.65,51.12,98.95,51.12z"/>
</svg>
