<?xml version="1.0" encoding="UTF-8"?><svg id="Layer_1" xmlns="http://www.w3.org/2000/svg" viewBox="0 0 488.61 51.84"><defs><style>.cls-1{fill:#6f533c;stroke-width:0px;}</style></defs><path class="cls-1" d="M268.08,30.82h0v18.94c0,.72-.58,1.37-1.37,1.37h-8.57c-.72,0-1.37-.65-1.37-1.37V2.09c0-.72.65-1.37,1.37-1.37h8.57c.79,0,1.37.65,1.37,1.37v18.15h0v10.58ZM298.6.72h-8.57c-.79,0-1.37.65-1.37,1.37v18.15h-17.02v10.58h17.02v18.94c0,.72.58,1.37,1.37,1.37h8.57c.72,0,1.37-.65,1.37-1.37V2.09c0-.72-.65-1.37-1.37-1.37ZM.02,49.54c-.14.94.5,1.58,1.37,1.58h8.5c.72,0,1.3-.58,1.37-1.15l3.17-22.25h.14l12.17,23.33c.22.43.79.79,1.22.79h1.3c.36,0,1.01-.36,1.22-.79l12.1-23.33h.14l3.24,22.25c.07.58.72,1.15,1.37,1.15h8.5c.86,0,1.51-.65,1.37-1.58L49.06,1.15c-.07-.65-.72-1.15-1.3-1.15h-1.15c-.36,0-1.01.29-1.22.72l-16.71,31.11h-.14L11.83.72c-.22-.43-.86-.72-1.22-.72h-1.15c-.58,0-1.22.5-1.3,1.15L.02,49.54ZM143.02,26.57v12.6c-2.16.86-4.32,1.15-6.41,1.15-7.85,0-14.26-6.48-14.26-14.33s6.34-14.54,14.19-14.54c3.53,0,6.7.94,9.43,3.46.58.43,1.37.43,1.94-.07l5.69-6.05c.58-.58.5-1.44-.14-1.94C148.56,2.59,141.93.07,135.88.07c-14.33,0-25.85,11.52-25.85,25.92s11.52,25.78,25.85,25.78c10.44,0,17.86-4.68,17.86-4.68.29-.22.58-.79.58-1.15l-.07-19.37c0-.72-.58-1.37-1.3-1.37h-8.57c-.79,0-1.37.58-1.37,1.37M164.18,49.76c0,.72.58,1.37,1.3,1.37h17.57c13.9,0,25.27-11.31,25.27-25.27S196.94.72,183.04.72h-17.57c-.72,0-1.3.65-1.3,1.37v47.67ZM175.41,40.47V11.31h6.91c8.14,0,14.04,6.41,14.04,14.54s-5.9,14.62-14.04,14.62h-6.91ZM217.1,49.76c0,.72.65,1.37,1.37,1.37h8.64c.72,0,1.37-.65,1.37-1.37V2.09c0-.72-.65-1.37-1.37-1.37h-8.64c-.72,0-1.37.65-1.37,1.37v47.67ZM355.48,49.76c0,.72.65,1.37,1.37,1.37h31.25c.79,0,1.37-.65,1.37-1.37v-7.85c0-.72-.58-1.37-1.37-1.37h-15.7v-.14l18.51-37.37v-.94c0-.72-.65-1.37-1.37-1.37h-30.6c-.72,0-1.37.65-1.37,1.37v7.85c0,.72.65,1.37,1.37,1.37h15.7v.14l-19.15,37.01v1.3ZM431.59,51.12h7.99c1.08,0,1.66-.94,1.22-1.87L418.26.79c-.22-.43-.72-.79-1.22-.79h-.72c-.5,0-1.01.36-1.22.79l-22.54,48.46c-.43.94.14,1.87,1.22,1.87h7.92c1.44,0,2.23-.86,2.59-1.73l12.31-27.43h.07l12.38,27.36c.65,1.37,1.22,1.8,2.52,1.8ZM479.25,51.12h7.99c1.08,0,1.66-.94,1.22-1.87L465.93.79c-.22-.43-.72-.79-1.22-.79h-.72c-.5,0-1.01.36-1.22.79l-22.54,48.46c-.43.94.14,1.87,1.22,1.87h7.92c1.44,0,2.23-.86,2.59-1.73l12.31-27.43h.07l12.38,27.36c.65,1.37,1.22,1.8,2.52,1.8ZM344.9,51.12h7.99c1.08,0,1.66-.94,1.22-1.87L331.58.79c-.22-.43-.72-.79-1.22-.79h-.72c-.5,0-1.01.36-1.22.79l-22.54,48.46c-.43.94.14,1.87,1.22,1.87h7.92c1.44,0,2.23-.86,2.59-1.73l12.31-27.43h.07l12.38,27.36c.65,1.37,1.22,1.8,2.52,1.8ZM98.95,51.12h7.99c1.08,0,1.66-.94,1.22-1.87L85.63.79c-.22-.43-.72-.79-1.22-.79h-.72c-.5,0-1.01.36-1.22.79l-22.54,48.46c-.43.94.14,1.87,1.22,1.87h7.92c1.44,0,2.23-.86,2.59-1.73l12.31-27.43h.07l12.38,27.36c.65,1.37,1.22,1.8,2.52,1.8Z"/></svg>