<?xml version="1.0" encoding="utf-8"?>
<!-- Generator: Adobe Illustrator 28.2.0, SVG Export Plug-In . SVG Version: 6.00 Build 0)  -->
<svg version="1.1" id="Layer_1" xmlns="http://www.w3.org/2000/svg" xmlns:xlink="http://www.w3.org/1999/xlink" x="0px" y="0px"
	 viewBox="0 0 221.6 256" style="enable-background:new 0 0 221.6 256;" xml:space="preserve">
<style type="text/css">
	.st0{fill:#6E523B;}
</style>
<path class="st0" d="M194.1,54.7c-1.7-0.9-3.4-1.9-5-2.9c-4.7-3.1-9.1-6.8-12.9-11c-9.7-11-13.3-22.2-14.6-30.1h0.1
	C160.5,4.2,161,0,161,0h-44v170c0,2.3,0,4.5-0.1,6.8c0,0.3,0,0.5,0,0.8c0,0.1,0,0.3,0,0.4v0.1c-0.9,12.4-8,23.5-18.8,29.6
	c-5.5,3.2-11.8,4.8-18.2,4.8c-20.5,0-37.1-16.7-37.1-37.3s16.6-37.3,37.1-37.3c3.9,0,7.7,0.6,11.4,1.8l0.1-44.8
	C68.8,92,46,98.6,28.5,113.3c-7.6,6.6-13.9,14.4-18.8,23.2c-1.9,3.2-8.9,16.1-9.7,36.9c-0.5,11.8,3,24.1,4.7,29.2v0.1
	c1.1,3,5.2,13.2,11.9,21.8c5.4,6.9,11.8,12.9,19,18v-0.1l0.1,0.1C57,256.9,80.6,256,80.6,256c4.1-0.2,17.8,0,33.3-7.4
	c17.2-8.2,27-20.3,27-20.3c6.3-7.3,11.3-15.6,14.7-24.5c4-10.5,5.3-23,5.3-28V85.6c0.5,0.3,7.6,5,7.6,5s10.2,6.6,26.2,10.8
	c11.5,3,26.9,3.7,26.9,3.7V61.5C216.4,62.1,205.4,60.4,194.1,54.7z"/>
</svg>
